<svg width="130" height="130" viewBox="0 0 130 130" fill="none" xmlns="http://www.w3.org/2000/svg">
<path d="M129 65C129 100.346 100.346 129 65 129C29.6538 129 1.00002 100.346 1.00001 65C1.00001 29.6538 29.6538 0.999995 65 0.999989C100.346 0.999982 129 29.6538 129 65Z" stroke="#121212" stroke-width="2"/>
<path d="M111.192 67.473C111.087 68.9879 112.135 69.9292 113.667 70.0868L111.083 70.2238L111.032 70.9558L114.56 71.2012L114.776 68.09L113.81 68.0229L113.674 69.9851C112.745 69.6753 112.161 69.1238 112.24 67.975C112.334 66.6329 113.356 66.04 114.8 66.1404C116.213 66.2387 117.164 66.9586 117.065 68.382C116.988 69.4801 116.272 70.0841 115.384 70.2266L116.026 71.2725C117.289 70.8904 118.054 69.8811 118.153 68.4475C118.301 66.3328 116.887 65.0596 114.884 64.9203C112.719 64.7697 111.314 65.7243 111.192 67.473Z" fill="#121212"/>
<path d="M109.46 78.2562L110.448 78.504L111.343 74.9353L113.241 75.4112L112.5 78.367L113.488 78.6148L114.23 75.659L115.989 76.1002L115.094 79.6689L116.083 79.9168L117.258 75.231L110.634 73.5704L109.46 78.2562Z" fill="#121212"/>
<path d="M107.643 83.1689L112.993 85.4319L112.175 87.3655L113.114 87.7625L115.194 82.844L114.256 82.447L113.442 84.3712L108.091 82.1082L107.643 83.1689Z" fill="#121212"/>
<path d="M102.867 91.7222L108.432 95.6782L109.1 94.7395L103.534 90.7835L102.867 91.7222Z" fill="#121212"/>
<path d="M100.48 94.8768L103.253 97.4176L104.225 98.1976L103.091 98.0018L98.201 97.3639L97.4849 98.1454L102.519 102.759L103.297 101.91L100.532 99.3757L99.5297 98.5539L100.773 98.7809L105.569 99.4301L106.292 98.6411L101.258 94.0278L100.48 94.8768Z" fill="#121212"/>
<path d="M89.8959 104.099L93.0323 108.989L91.2652 110.122L91.8154 110.98L96.3105 108.097L95.7603 107.239L94.0017 108.367L90.8652 103.477L89.8959 104.099Z" fill="#121212"/>
<path d="M83.5017 107.408C81.6678 108.2 81.0241 110.154 81.8079 111.97C82.5876 113.775 84.4515 114.647 86.2854 113.855C88.1286 113.059 88.763 111.109 87.9832 109.303C87.1995 107.488 85.345 106.612 83.5017 107.408ZM83.9287 108.423C85.2386 107.857 86.3082 108.483 86.8698 109.784C87.4273 111.075 87.1536 112.292 85.8437 112.858C84.5338 113.423 83.4695 112.784 82.912 111.493C82.3504 110.192 82.6188 108.988 83.9287 108.423Z" fill="#121212"/>
<path d="M75.9013 109.955C74.0856 110.381 73.4587 111.501 73.9312 113.516L74.8251 117.326L75.9364 117.065L75.0402 113.245C74.7306 111.925 75.0315 111.289 76.1428 111.029C77.2343 110.773 77.8065 111.204 78.116 112.523L79.0122 116.343L80.1235 116.083L79.2297 112.273C78.7571 110.258 77.6774 109.538 75.9013 109.955Z" fill="#121212"/>
<path d="M67.8867 111.176C66.3812 111.269 65.3921 112.116 64.9957 113.468L66.0379 114.139C66.1886 113.109 66.774 112.337 67.9438 112.265C69.3476 112.178 70.071 113.144 70.1578 114.548C70.2452 115.962 69.6456 117 68.2418 117.087C67.072 117.159 66.3967 116.476 66.1196 115.461L65.168 116.255C65.7284 117.558 66.8138 118.267 68.3193 118.174C70.4148 118.045 71.4998 116.436 71.3784 114.473C71.2571 112.509 69.9822 111.046 67.8867 111.176Z" fill="#121212"/>
<path d="M61.4954 111.255L61.1521 114.211L57.8923 113.832L58.2356 110.876L57.0917 110.743L56.3039 117.526L57.4478 117.659L57.7747 114.845L61.0345 115.223L60.7076 118.038L61.8516 118.17L62.6394 111.388L61.4954 111.255Z" fill="#121212"/>
<path d="M47.3553 110.419L47.0473 111.239L49.4424 112.138L49.7503 111.317L47.3553 110.419Z" fill="#121212"/>
<path d="M39.9866 103.927C38.7237 103.084 37.3864 103.527 36.4895 104.778L37.6528 102.467L37.0425 102.06L35.0789 105.001L37.6726 106.732L38.2102 105.927L36.5743 104.835C37.304 104.183 38.073 103.948 39.0308 104.588C40.1497 105.335 40.1574 106.516 39.3538 107.72C38.5672 108.898 37.4702 109.367 36.2835 108.575C35.3681 107.963 35.1991 107.042 35.5162 106.2L34.2894 106.238C33.9946 107.524 34.4914 108.689 35.6865 109.487C37.4496 110.664 39.2562 110.069 40.371 108.399C41.5763 106.594 41.4446 104.9 39.9866 103.927Z" fill="#121212"/>
<path d="M31.573 97.1563L30.8709 97.895L33.5378 100.43L32.1897 101.848L29.9809 99.7487L29.2788 100.487L31.4876 102.587L30.2379 103.902L27.571 101.367L26.8689 102.106L30.3706 105.434L35.0746 100.484L31.573 97.1563Z" fill="#121212"/>
<path d="M28.1547 93.0986L23.5458 96.6347L22.2678 94.969L21.4592 95.5894L24.71 99.8264L25.5186 99.206L24.2468 97.5484L28.8557 94.0123L28.1547 93.0986Z" fill="#121212"/>
<path d="M23.0834 84.7657L16.8979 87.6582L17.3857 88.7014L23.5712 85.809L23.0834 84.7657Z" fill="#121212"/>
<path d="M21.5054 81.1302L17.924 82.2776L16.7648 82.7346L17.4972 81.8472L20.4762 77.9176L20.1528 76.9083L13.65 78.9916L14.0014 80.0883L17.5731 78.9441L18.7839 78.4812L17.9701 79.4483L15.0275 83.2912L15.354 84.3103L21.8568 82.227L21.5054 81.1302Z" fill="#121212"/>
<path d="M18.743 67.4762L12.9423 67.7898L12.8289 65.6934L11.8113 65.7484L12.0996 71.0811L13.1173 71.026L13.0045 68.9398L18.8052 68.6261L18.743 67.4762Z" fill="#121212"/>
<path d="M19.0321 60.0649C19.2549 58.0798 17.8779 56.551 15.9131 56.3304C13.9584 56.111 12.2767 57.2965 12.0539 59.2815C11.8299 61.2768 13.208 62.7955 15.1627 63.0149C17.1276 63.2354 18.8081 62.0601 19.0321 60.0649ZM17.9394 59.932C17.7802 61.3499 16.7058 61.9677 15.298 61.8096C13.9004 61.6527 12.9796 60.811 13.1387 59.3931C13.2979 57.9751 14.3813 57.3686 15.7789 57.5255C17.1867 57.6835 18.0986 58.514 17.9394 59.932Z" fill="#121212"/>
<path d="M20.5414 52.3254C21.07 50.5368 20.4066 49.4374 18.4226 48.851L14.6695 47.7418L14.3459 48.8364L18.1088 49.9486C19.4087 50.3327 19.8123 50.909 19.4888 52.0036C19.171 53.0788 18.5132 53.3626 17.2133 52.9784L13.4505 51.8663L13.127 52.9609L16.88 54.0702C18.8641 54.6566 20.0244 54.0749 20.5414 52.3254Z" fill="#121212"/>
<path d="M23.4401 44.721C24.1093 43.3692 23.8673 42.0894 22.8924 41.0723L21.7917 41.6418C22.6101 42.2858 22.9873 43.1776 22.4673 44.228C21.8433 45.4884 20.6452 45.6345 19.3848 45.0105C18.1152 44.3819 17.514 43.3451 18.138 42.0847C18.658 41.0343 19.5868 40.7891 20.6043 41.054L20.3898 39.8333C18.9808 39.6703 17.8254 40.2582 17.1562 41.61C16.2247 43.4915 17.0794 45.2338 18.8422 46.1065C20.6049 46.9792 22.5086 46.6025 23.4401 44.721Z" fill="#121212"/>
<path d="M26.4785 39.202L24.0847 37.4338L26.0345 34.7941L28.4283 36.5623L29.1125 35.6359L23.62 31.5789L22.9358 32.5053L25.2148 34.1886L23.265 36.8283L20.986 35.1449L20.3018 36.0713L25.7942 40.1283L26.4785 39.202Z" fill="#121212"/>
<path d="M34.0625 27.4218L33.4991 26.7504L31.5396 28.3948L32.103 29.0662L34.0625 27.4218Z" fill="#121212"/>
<path d="M43.4226 24.0987C44.7785 23.4149 45.0517 22.0329 44.4042 20.6359L45.8429 22.7868L46.498 22.4564L44.9055 19.2987L42.121 20.7031L42.557 21.5675L44.3132 20.6818C44.5217 21.6382 44.3466 22.4228 43.3183 22.9414C42.1172 23.5472 41.0851 22.9719 40.4334 21.6797C39.7955 20.4148 39.9281 19.2293 41.2021 18.5868C42.1849 18.0912 43.0702 18.3981 43.6468 19.0889L44.2174 18.0021C43.2435 17.1121 41.985 16.9706 40.7019 17.6177C38.8092 18.5723 38.4373 20.4378 39.3414 22.2304C40.319 24.1687 41.8574 24.8881 43.4226 24.0987Z" fill="#121212"/>
<path d="M53.2345 20.1645L52.9383 19.1893L49.418 20.2588L48.8492 18.3865L51.7649 17.5007L51.4686 16.5256L48.5529 17.4113L48.0256 15.6756L51.5459 14.6061L51.2497 13.6309L46.6274 15.0352L48.6123 21.5687L53.2345 20.1645Z" fill="#121212"/>
<path d="M58.4496 19.1537L57.6466 13.4002L59.7259 13.11L59.585 12.1006L54.2959 12.8389L54.4368 13.8482L56.506 13.5594L57.309 19.3129L58.4496 19.1537Z" fill="#121212"/>
<path d="M68.4167 18.8162L68.9692 12.0102L67.8213 11.917L67.2688 18.723L68.4167 18.8162Z" fill="#121212"/>
<path d="M72.4878 19.2431L73.2628 15.5631L73.4393 14.3296L73.8481 15.4052L75.7888 19.9383L76.826 20.1567L78.2332 13.4749L77.1063 13.2376L76.3333 16.9076L76.1364 18.1889L75.6987 17.0031L73.8152 12.5445L72.7681 12.324L71.3609 19.0058L72.4878 19.2431Z" fill="#121212"/>
<path d="M85.8794 23.651L88.4954 18.4641L90.3699 19.4095L90.8289 18.4995L86.0605 16.0947L85.6016 17.0047L87.4671 17.9455L84.8512 23.1324L85.8794 23.651Z" fill="#121212"/>
<path d="M91.8708 27.3865C93.4862 28.5615 95.4959 28.1204 96.6589 26.5215C97.816 24.9308 97.6169 22.883 96.0015 21.7079C94.3779 20.5269 92.3765 20.974 91.2194 22.5647C90.0563 24.1636 90.2472 26.2054 91.8708 27.3865ZM92.5265 26.5024C91.3727 25.663 91.3668 24.4237 92.2002 23.2781C93.0275 22.1407 94.2144 21.7564 95.3683 22.5958C96.5221 23.4351 96.5138 24.6767 95.6864 25.8141C94.8531 26.9597 93.6804 27.3417 92.5265 26.5024Z" fill="#121212"/>
<path d="M97.9136 32.5558C99.2083 33.8983 100.492 33.864 101.981 32.4279L104.798 29.7113L104.006 28.8896L101.181 31.6133C100.206 32.5542 99.5054 32.6207 98.713 31.7991C97.9349 30.9921 98.0127 30.2799 98.9884 29.339L101.813 26.6154L101.021 25.7937L98.2034 28.5103C96.7141 29.9464 96.6473 31.2426 97.9136 32.5558Z" fill="#121212"/>
<path d="M103.196 38.9345C104.043 40.1829 105.276 40.6027 106.641 40.2554L106.688 39.0169C105.724 39.4119 104.762 39.3008 104.105 38.3308C103.315 37.1669 103.778 36.0523 104.942 35.2628C106.115 34.4676 107.313 34.4552 108.103 35.6192C108.76 36.5892 108.516 37.5183 107.785 38.2732L108.952 38.6879C109.788 37.5421 109.846 36.247 108.999 34.9986C107.821 33.2611 105.884 33.1466 104.256 34.2507C102.628 35.3548 102.018 37.197 103.196 38.9345Z" fill="#121212"/>
<path d="M106.406 44.0978L109.12 42.8774L110.465 45.8705L107.751 47.0908L108.223 48.1412L114.451 45.3412L113.979 44.2908L111.395 45.4526L110.049 42.4595L112.633 41.2977L112.161 40.2473L105.933 43.0474L106.406 44.0978Z" fill="#121212"/>
<path d="M112.992 56.707L113.854 56.5493L113.394 54.033L112.532 54.1906L112.992 56.707Z" fill="#121212"/>
<path d="M65.0002 39.677L58.0939 58.0937L39.6772 64.9999L58.0939 71.9062L65.0002 90.3228L71.9064 71.9062L90.3231 64.9999L71.9064 58.0937L65.0002 39.677Z" fill="#121212"/>
</svg>
